<?xml version="1.0" encoding="utf-8"?>
<!-- Generator: Adobe Illustrator 24.0.0, SVG Export Plug-In . SVG Version: 6.00 Build 0)  -->
<svg version="1.1" id="图层_1" xmlns="http://www.w3.org/2000/svg" xmlns:xlink="http://www.w3.org/1999/xlink" x="0px" y="0px"
	 viewBox="0 0 306.75 309.2" style="enable-background:new 0 0 306.75 309.2;" xml:space="preserve">
<style type="text/css">
	.st0{fill-rule:evenodd;clip-rule:evenodd;fill:#00561F;}
	.st1{fill:#00561F;}
</style>
<g>
	<path class="st0" d="M224.63,91.56v-6.59c-3.08-1.58-5.45-2.73-6.94-3.08c-0.71-0.18-2.73-0.44-3.43-0.44
		c-1.67-0.26-1.85,0.44-1.67,1.32c0.44,1.94,2.55,2.72,3.16,2.64c1.93-0.35,2.55,0.44,3.95,0.97c0.88,0.26,3.08,0.79,2.46,1.4
		c-0.7,0.71-0.79,0.09-1.5,0.53c-0.61,0.44-2.9-0.88-3.69-0.18c-0.44,0.44,0.09,1.76-0.79,1.94c-0.52,0.09-1.32-0.7-2.02-1.14
		c-2.02-1.14-4.13-3.16-6.15-4.04c-2.2-0.88-2.38,0.17-2.11,1.58c0.08,0.79,0,1.14,0.7,2.63c0.79,1.58,5.19,2.38,6.77,3.96
		c0.97,0.88,1.85,1.15,1.41,1.58c-0.79,1.32-1.49,2.38-2.9,2.9c-1.32,0.61-6.59-4.92-6.68-3.34c0.17,1.23,1.14,2.72,1.32,4.04
		c0.35,1.93,0.35,3.51,0.44,4.04c0.35,1.23,2.72,1.76,5.45,0.88c1.15-0.43,2.55-1.14,3.78-1.84c1.67-0.97,3.43-4.84,4.4-4.31
		c2.29,1.23,2.38,1.67,4.05,3.69l0,0v-5.97c-1.76-0.97-3.25-1.85-2.73-2.46C222.26,91.83,223.31,91.56,224.63,91.56z M214.17,75.48
		c0.71,0,4.92-5.63,5.98-7.56c0.26-1.14,1.14-2.37,1.67-2.9c0.88-0.7,1.5-0.53,1.85,0.09c0.44,0.79,0.35,2.29-0.09,4.39
		c-0.26,1.41-0.7,0.79-0.97,1.23c-1.49,1.85-3.16,3.61-4.13,4.93c-0.62,0.69,0.35,1.58,0.88,1.31c1.76-2.11,3.69-4.92,5.27-6.94
		v5.89C224.54,76,224.54,76,224.54,76c-1.06,1.14-1.67,0.61-2.2,1.93c0.09,0.35,1.32,0.61,2.29,0.61v4.66
		c-0.53-0.35-1.14-0.62-1.58-0.88c-0.35-0.18-0.97-0.53-1.67-0.62c-0.53-0.08-1.23,0.27-1.76,0c-0.79-0.44-1.41-0.88-1.84-1.14
		c-0.53-0.35-0.88-0.43-1.59-0.79c-0.7-0.35-2.11-1.14-3.51-1.05c-1.32,0.09-2.9,2.02-3.95,2.46c-0.97,0.44-1.85,0.88-2.64,1.23
		c-0.97,0.44-1.75,0.79-2.72,0.35c-1.41-0.62-1.05-3.16-0.26-3.87c1.23-0.97,2.28-1.76,3.25-2.81c0.61-0.7,0.97-1.67,1.49-2.2
		c0.53-0.52,1.14-0.52,1.67-0.61c0.61-0.18,1.32-0.35,1.76,0.17c0.44,0.44,0.44,1.06,0.88,1.5
		C212.76,75.56,213.29,75.56,214.17,75.48L214.17,75.48z M224.63,94.73c0.53,0.35,1.14,0.7,1.76,1.05c0.44,0.26,0.79,0.35,1.23,0.53
		v5.72c-1.05,0.17-2.37-0.53-2.99-1.32V94.73z M227.62,92.09v-5.45c-0.88-0.53-1.67-0.96-2.46-1.41l-0.53-0.26v6.59
		c0.79,0,1.76,0.09,2.46,0.44C227.27,92,227.44,92.09,227.62,92.09L227.62,92.09z M224.63,70.03c0.61-0.88,1.23-1.67,1.76-2.2
		c0.44-0.53,0.88-1.23,1.23-1.76v6.24c-0.17,0.17-0.26,0.35-0.44,0.53c0.09,0.09,0.18,0.17,0.44,0.26v8c-0.44,0.09-0.35,0-0.7,0.26
		c-0.09,0.17,0.35,0.62,0.7,0.7v2.99l-0.17-0.09c-0.97-0.62-1.94-1.23-2.81-1.76v-4.66c0.44,0,0.88-0.09,1.05-0.35
		c1.14-1.14,1.67-1.85,0.36-2.37c-0.09,0.08-0.71-0.53-1.41,0.08V70.03L224.63,70.03z M230.87,87.26v-4.22
		c-0.17-0.18-0.35-0.53-0.35-0.62c0.18-0.18,0.26-0.26,0.35-0.26v-5.19c-0.35,0-0.79-0.09-0.88-0.17c0.27-0.53,0.35-0.53,0.88-0.79
		l0,0v-4.13c-0.09,0.17-0.26,0.44-0.53,0.61c-0.61,0.62-2.02,0.79-2.72,0.62v8l0.09-0.09c0.44-0.09,0.35,0.35,0.44,0.35
		c0.26,0.44,0.17,0.53-0.44,0.7c-0.09,0-0.09,0-0.09,0v2.99C228.85,85.85,229.99,86.64,230.87,87.26z M227.62,96.31
		c0.53,0.18,0.97,0.26,1.06,0.62c0.52,1.75,0.61,2.01-0.09,4.13c-0.18,0.62-0.53,0.88-0.97,0.97V96.31L227.62,96.31z M230.87,91.65
		c-0.26-0.18-0.61-0.26-1.06-0.35c-0.7,0.09-1.23,0.97-2.2,0.79v-5.45c1.23,0.79,2.46,1.58,3.25,2.11V91.65L230.87,91.65z
		 M227.62,66.07c0.35-0.7,0.71-1.23,1.14-1.23c0.79,0,1.67,0.97,2.11,1.67v3.17c-0.09-0.09-0.26-0.18-0.44-0.18
		c-0.27,0-0.35,0.27-0.44,0.35c-0.88,0.88-1.67,1.58-2.37,2.47V66.07L227.62,66.07z M230.87,66.51c0.09,0.09,0.18,0.18,0.18,0.26
		c0.26,0.62,0.88-0.17,1.32,0c0.88,0.26,1.67,0.97,1.76,1.58c0.18,0.7,0.44,1.49,0.88,1.85v8.7c-0.18-0.09-0.26-0.18-0.36-0.27
		c-0.52-0.26-0.7,0.35-0.88,0.71c-0.09,0.26,0.18,0.7,0.62,0.88c0.26,0.26,0.44,0.44,0.61,0.61v5.45c-0.09,0.09-0.09,0.27,0,0.35v8
		c-1.23-0.88-2.46-2.2-4.13-2.99v-2.9c0.26,0.08,0.44,0.27,0.61,0.35c0.53,0.35,1.23,0,1.06-0.52c0-0.18-0.7-0.62-1.67-1.32v-4.22
		c0.18,0.08,0.26,0.18,0.44,0.18c0.27-0.09,0.71,0,0.71-0.44c-0.09-0.26-0.09-0.44-0.53-0.62c-0.26-0.17-0.44-0.17-0.61,0v-5.19
		c0.26,0,0.35-0.09,0.44-0.17c0.53-0.45,0.71-0.61,0.17-0.88c-0.09,0.09-0.17-0.08-0.61,0.09v-4.13c0.61-0.88,0.71-1.67,0-2.2V66.51
		z M235,86.64h0.09c2.81,1.32,3.43,2.03,3.87,4.22c0.35,1.84,0.96,3.16-0.52,4.22c-1.32,0.53-2.38,0.17-3.43-0.44V86.64z M235,70.2
		c0.27,0.26,0.62,0.35,1.05,0.26c1.5-0.17,2.38-3.25,4.13-2.2c0.97,0.79,0.97,2.46,1.05,3.43c0,1.23-0.79,1.84-3.87,2.37
		c-0.17,0.09-0.26,0-0.79,0.52c-0.44,0.7,0.79,1.41-0.44,2.46c-0.61,0.53,1.93,2.55,2.11,2.9c0.18,0.44,0.79,0.09,0.7-0.61
		c-0.09-0.18-0.18-0.88-0.44-1.49c-0.35-1.06-0.88-2.2-0.61-2.64c0.26-0.62,1.32,0,2.46,0.79c0.88,0.61,2.55,0.61,3.07,1.41
		c0.62,0.79,1.14,1.14,0.35,4.3c-0.18,0.53-1.14,0.88-2.02,1.14c-1.4,0.53-2.2,1.32-3.6,1.85c-0.79,0.35-2.72,1.05-3.16,1.58v-5.45
		c0.27,0.17,0.53,0.26,0.79,0.26c0.26-0.09,0.62-0.53,0.53-0.79c-0.35-0.53-0.88-1.06-1.32-1.41V70.2L235,70.2z"/>
	<path class="st0" d="M172.59,44.8c1.94,0.61,3.26,0.71,3.34,0.35c0.52-1.59,1.23-4.39,1.32-6.68c0.09-1.14,1.06-1.58,1.76-1.76
		c1.67-0.52,2.2-0.79,2.98-0.52c1.41,0.61,2.2,1.84,2.9,3.43c0.27,0.79,0.97-0.09-0.61,3.34c-0.7,1.67-0.52,1.93-0.26,2.28
		c0.7,0.53,1.58,0.44,2.99,0.44c1.68-0.09,2.73-2.29,4.84,2.11c0.35,0.53,0.44,1.23-0.27,1.85c-0.88,0.7-2.55,0.79-4.57,1.32
		c-2.64,0.61-6.42-0.09-6.33,1.67c0.53,4.4,3.34,11.08,7.91,16.44c1.14,1.4,2.72,2.72,4.57,3.78c2.64,1.5,4.83,2.72,3.26,3.07
		c-2.46,0.53-10.81-0.26-12.75-2.02c-2.02-1.93-6.15-14.77-6.76-17.32c-0.09-0.08-0.27-0.18-0.45,0.09
		c-2.02,2.55-6.24,7.21-9.58,8.7c-1.49,0.61-3.16-0.35-3.6-0.97c-0.52-0.61-4.39-2.55-4.75-4.05c-0.09-0.88,0.44-0.79,0.88-0.7
		c5.45,1.14,6.59-0.27,8.09-0.88c3.95-1.67,5.63-5.98,5.27-6.24c-5.1-0.88-6.95-0.7-8-2.9c-1.5-6.95,1.23-7.3,4.04-6.24
		C170.22,44.01,172.07,44.71,172.59,44.8z"/>
	<path class="st0" d="M112.47,58.87c0.7-0.09,1.32,0,2.2,0.7c2.38,1.58,3.08,4.66,4.22,6.24c0.44,0,1.23-0.53,2.2-1.14
		c1.23-0.88,2.64-1.76,2.38-2.12c-0.97-1.85-6.15-14.06-7.21-15.65c-0.09-0.17-0.44-0.61-0.52-0.79c-1.93-2.55,0.35-4.57,1.23-4.83
		c1.4-0.44,5.36,0.88,5.45,2.28c-0.17,1.5,1.32,5.01,2.72,8.35c1.32,2.81,2.46,5.63,3.08,6.59c0.35,0.88,3.43-1.76,4.4-2.81
		c1.32-0.88-1.06-5.45-0.18-6.86c0.35-0.7,4.13-1.67,5.98,1.05c0.88,1.58,1.32,3.87,1.76,5.98c0.35,1.5,0.88,3.34,1.14,3.96
		c0.27,0.7-1.23,4.66-1.84,5.71c-1.23,0.97-3.25-2.19-4.05-3.96c-0.44-0.97-0.53-1.32-0.88-1.41c-0.88,0.26-2.9,1.67-3.87,2.9
		c-0.53,0.62-0.35,1.76-1.15,2.38c-3.69,1.49-7.12,3.87-7.38,4.65c-0.18,0.44-1.32,2.73-1.41,3.26c-0.09,0.52-1.58,0.7-1.93,0.97
		c-0.79,0.79-2.02-0.62-3.69-1.58c-1.76-0.88-1.32-2.02-1.41-3.87c0-2.02-1.14-5.19-2.19-7.21
		C110.98,60.62,110.36,59.39,112.47,58.87z"/>
	<path class="st0" d="M70.1,82.42c0.71-0.35,0.79-1.06,0.97-2.11c0.79-2.81,0.87-3.87,1.75-5.72c-1.41-1.32-2.99-2.55-4.31-3.87
		c-0.26-0.26-0.61-0.44-0.88-0.53c-0.88-0.26-1.41-1.23-1.41-2.37v-0.36c0-0.87,0.26-1.84,0.88-2.8c0.35-0.53,3.69-1.76,4.66-0.8
		c1.41,1.41,2.9,3.25,4.4,4.3c0.09-0.09,0.26-0.26,0.44-0.35v11.69c-0.17-0.17-0.35-0.27-0.44-0.35c-0.53,0-0.44,0.7-0.44,0.97
		c-0.35,1.32-1.06,2.28-1.93,2.81c-0.52,0.17,1.5,1.76,2.81,2.37v9.76c-0.26-0.09-0.53-0.17-0.88-0.26
		c-1.32-0.09-2.46-0.09-3.52-1.15c-0.61-1.31-0.96-1.94-1.23-2.81c-0.17-0.35-0.44-0.7-0.79-1.14c-1.05-1.15-1.84-2.2-2.46-3.7
		C67.47,85.14,68,82.68,70.1,82.42z M76.61,67.83c0.7-0.62,1.58-1.49,2.46-2.46c0.79-1.14,1.23-3.16,2.02-4.13
		c0.18-0.18,0.36-0.27,0.53-0.35v7.38c-1.14,0.44-2.11,2.2-2.37,2.99c0.09,0.52,1.32,2.02,2.37,2.99v20.74
		c-0.53,0.53-1.23,0.97-1.93,1.05c-0.79,0.09-1.67-0.61-3.08-0.97v-9.76c0.44,0.26,0.88,0.35,1.06,0.17
		c1.32-1.06,1.49-1.31,1.85-2.72c0.17-0.53-1.85-2.46-2.9-3.25V67.83z M81.62,60.89c1.58-0.97,4.57-0.88,5.98-0.27
		c1.32,0.7,1.5,2.2,1.14,3.25l-0.35,0.8c-0.35,1.05,0.09,3.87,0.44,4.13c0.44,0.53,0.79,0.88,1.67,0.7c0.7,0.09,1.93,2.73,1.4,3.96
		c-0.17,0.44-0.26,0.88-0.88,1.59c-1.49,1.41-2.37,3.69-2.81,5.97c4.57,4.57,8.53,9.05,12.92,13.72c2.11,2.64,3.52,5.62,2.46,6.94
		c-0.88,0.79-3.69-0.18-6.77-3.08L84.08,86.64c-0.62,0.97-1.23,2.55-2.02,4.4c0,0.53,0,0.97,0,1.58c0.09,0.53,0.35,1.14,0.18,1.58
		c-0.18,0.26-0.35,0.53-0.62,0.79V74.25c0.62,0.61,1.23,1.05,1.4,0.97c1.06-0.79,1.15-2.9,0.88-3.69c-0.26-1.14-0.79-2.81-2.02-3.34
		c-0.09,0.09-0.18,0.09-0.26,0.09V60.89z"/>
	<path class="st0" d="M153.37,3.58C70.14,3.58,2.66,71.06,2.66,154.29c0,83.24,67.48,150.71,150.71,150.71
		c83.24,0,150.71-67.48,150.71-150.71C304.09,71.06,236.61,3.58,153.37,3.58z M153.37,295.06c-77.74,0-140.77-63.02-140.77-140.77
		c0-77.74,63.03-140.76,140.77-140.76s140.77,63.02,140.77,140.76C294.14,232.04,231.12,295.06,153.37,295.06z M153.37,17.62
		C77.89,17.62,16.7,78.81,16.7,154.29c0,75.49,61.19,136.68,136.68,136.68c75.48,0,136.68-61.19,136.68-136.68
		C290.05,78.81,228.86,17.62,153.37,17.62z M153.37,288.1c-73.9,0-133.81-59.91-133.81-133.81c0-73.9,59.91-133.81,133.81-133.81
		c73.9,0,133.81,59.91,133.81,133.81C287.18,228.2,227.28,288.1,153.37,288.1z"/>
	<g>
		<g>
			<path class="st1" d="M61.99,132.24l-7.47-1.94l0.19-0.67c1.95,0.21,3.67-0.14,5.16-1.06c1.49-0.92,2.44-2.1,2.85-3.54
				c0.32-1.12,0.27-2.09-0.14-2.91c-0.41-0.82-1.01-1.34-1.78-1.57c-0.49-0.14-0.96-0.15-1.41-0.03c-0.61,0.17-1.26,0.54-1.96,1.09
				c-0.51,0.41-1.49,1.42-2.94,3.01c-2.03,2.24-3.74,3.65-5.13,4.24c-1.4,0.57-2.83,0.65-4.29,0.23c-1.86-0.53-3.26-1.71-4.18-3.55
				c-0.93-1.83-1.07-3.87-0.43-6.1c0.2-0.7,0.46-1.34,0.78-1.92c0.32-0.58,0.81-1.29,1.47-2.12c0.37-0.46,0.6-0.86,0.7-1.2
				c0.08-0.29,0.06-0.62-0.07-1c-0.13-0.38-0.39-0.73-0.78-1.06l0.18-0.61l8.41,2.4l-0.17,0.61c-2.5-0.19-4.57,0.22-6.21,1.24
				c-1.63,1.02-2.68,2.33-3.13,3.91c-0.35,1.23-0.29,2.3,0.16,3.22c0.46,0.92,1.14,1.5,2.02,1.76c0.52,0.15,1.07,0.16,1.64,0.02
				c0.57-0.14,1.16-0.43,1.77-0.87c0.61-0.44,1.47-1.29,2.59-2.53c1.57-1.74,2.84-2.96,3.79-3.64c0.95-0.69,1.93-1.14,2.93-1.38
				c1-0.23,2.02-0.2,3.06,0.1c1.78,0.5,3.1,1.59,3.98,3.25c0.88,1.66,1.03,3.48,0.47,5.46c-0.21,0.72-0.5,1.4-0.86,2.03
				c-0.28,0.48-0.7,1.04-1.27,1.67c-0.57,0.64-0.89,1.1-0.98,1.4c-0.08,0.28-0.06,0.53,0.07,0.75c0.13,0.21,0.51,0.49,1.13,0.82
				L61.99,132.24z"/>
			<path class="st1" d="M60.92,132.77l-1.61,11.85l-0.63-0.09l0.08-0.59c0.12-0.89,0.11-1.52-0.03-1.87
				c-0.14-0.36-0.37-0.63-0.67-0.82c-0.31-0.19-1.12-0.37-2.43-0.54l-11.24-1.53c-2.05-0.28-3.44-0.31-4.14-0.09
				c-0.71,0.22-1.33,0.65-1.87,1.3c-0.54,0.65-0.88,1.52-1.03,2.6c-0.17,1.24-0.04,2.34,0.4,3.29c0.44,0.95,1.12,1.71,2.05,2.28
				c0.92,0.57,2.6,1.02,5.04,1.35l9.36,1.28c1.03,0.14,1.78,0.13,2.24-0.02c0.47-0.15,0.81-0.38,1.02-0.69
				c0.33-0.47,0.56-1.17,0.68-2.1l0.62,0.09l-1.08,7.94l-0.63-0.09l0.06-0.47c0.09-0.64,0.03-1.2-0.17-1.66
				c-0.2-0.46-0.55-0.83-1.04-1.09c-0.34-0.2-0.98-0.36-1.91-0.49l-8.72-1.19c-2.7-0.37-4.62-0.81-5.77-1.33
				c-1.15-0.52-2.13-1.54-2.94-3.05c-0.82-1.51-1.06-3.46-0.74-5.84c0.27-1.99,0.75-3.49,1.42-4.5c0.93-1.38,1.99-2.3,3.2-2.75
				c1.21-0.46,2.77-0.55,4.68-0.29l11.24,1.53c1.32,0.18,2.15,0.22,2.49,0.11c0.34-0.1,0.64-0.32,0.87-0.66
				c0.24-0.34,0.42-0.99,0.54-1.96L60.92,132.77z"/>
			<path class="st1" d="M58.21,160.77l-13.77,12.14l9.95-0.5c1.39-0.07,2.32-0.32,2.79-0.74c0.63-0.58,0.9-1.51,0.82-2.8l0.63-0.03
				l0.39,7.64l-0.63,0.03c-0.17-0.97-0.37-1.62-0.59-1.94c-0.22-0.33-0.55-0.57-1.01-0.74c-0.46-0.16-1.24-0.22-2.33-0.16
				l-19.27,0.98l-0.03-0.58l18.47-16.63l-14.71,0.75c-1.33,0.07-2.21,0.42-2.65,1.05c-0.44,0.63-0.63,1.34-0.6,2.13l0.03,0.55
				l-0.63,0.03l-0.42-8.21l0.63-0.03c0.07,1.28,0.38,2.15,0.92,2.62c0.54,0.47,1.42,0.68,2.65,0.62l16.33-0.83l0.59-0.52
				c0.59-0.52,0.97-0.98,1.14-1.36c0.17-0.38,0.25-0.93,0.24-1.64l0.63-0.03L58.21,160.77z"/>
			<path class="st1" d="M69.04,204.7l-0.59,0.23c-0.38-0.67-0.8-1.13-1.27-1.39c-0.66-0.35-2.2-0.71-4.64-1.07l-9.65-1.57
				l-5.21,2.07c-1.11,0.44-1.78,0.77-2,1c-0.22,0.22-0.37,0.55-0.44,0.97c-0.07,0.42,0.01,0.92,0.24,1.5l0.48,1.21l-0.59,0.23
				l-4.8-12.08l0.59-0.23l0.45,1.13c0.25,0.63,0.56,1.09,0.93,1.38c0.26,0.22,0.6,0.33,1.02,0.35c0.3,0.02,0.99-0.19,2.07-0.62
				l4.32-1.71l7.21-8.73c1.42-1.73,2.21-2.86,2.37-3.41c0.16-0.54,0.11-1.16-0.15-1.85l0.59-0.23l4.1,10.32l-0.59,0.24l-0.18-0.46
				c-0.25-0.63-0.51-1.03-0.79-1.2c-0.28-0.18-0.52-0.23-0.72-0.15c-0.38,0.15-1.17,0.95-2.37,2.41l-5.59,6.72l8.04,1.3
				c1.97,0.33,3.21,0.39,3.73,0.19c0.29-0.11,0.47-0.34,0.55-0.69c0.12-0.46,0.02-1.19-0.31-2.17l0.59-0.23L69.04,204.7z"/>
			<path class="st1" d="M59.34,218.84l-4.45-6.87l-2.42,0.41c-0.81,0.14-1.41,0.34-1.82,0.61c-0.55,0.35-0.81,0.84-0.78,1.44
				c0.02,0.35,0.31,1.07,0.89,2.13l-0.53,0.35l-4.19-6.47l0.53-0.34c0.56,0.63,1.22,1.02,1.98,1.16c0.77,0.14,2.1,0.07,4.01-0.23
				l20.03-3.09l0.17,0.27l-11.41,17.34c-1.08,1.64-1.67,2.81-1.79,3.5c-0.09,0.52,0.04,1.09,0.37,1.71l-0.53,0.34l-6.09-9.41
				l0.53-0.34l0.25,0.39c0.49,0.76,0.94,1.22,1.35,1.39c0.29,0.11,0.58,0.08,0.86-0.11c0.17-0.11,0.33-0.26,0.48-0.43
				c0.07-0.07,0.34-0.45,0.8-1.13L59.34,218.84z M60.09,217.66l4.82-7.23l-8.63,1.35L60.09,217.66z"/>
			<path class="st1" d="M89.71,228.86l-4.55,4.32l-0.42-0.45c0.8-1.26,1.27-2.27,1.42-3.03c0.15-0.76,0.1-1.54-0.16-2.37
				c-0.15-0.45-0.6-1.08-1.34-1.86l-1.19-1.25l-12.95,12.31c-0.86,0.82-1.35,1.37-1.47,1.67c-0.12,0.3-0.14,0.66-0.04,1.09
				c0.1,0.43,0.38,0.88,0.83,1.37l0.53,0.56l-0.46,0.44l-8.35-8.79l0.46-0.43l0.53,0.56c0.46,0.49,0.92,0.79,1.38,0.93
				c0.32,0.1,0.68,0.08,1.08-0.06c0.28-0.1,0.84-0.55,1.69-1.34l12.95-12.31L78.5,219c-1.07-1.13-2.1-1.72-3.06-1.78
				c-1.35-0.08-2.73,0.37-4.15,1.36l-0.45-0.47l4.55-4.32L89.71,228.86z"/>
			<path class="st1" d="M88,244.9l-6.63-5.14l1.83-2.36l6.62,5.14L88,244.9z"/>
			<path class="st1" d="M108.95,240.71l-3.85,6.7l-0.6-0.36c0.72-1.83,0.84-3.58,0.35-5.26c-0.49-1.68-1.38-2.91-2.67-3.69
				c-0.99-0.6-1.94-0.82-2.84-0.64c-0.9,0.18-1.56,0.61-1.98,1.3c-0.27,0.44-0.4,0.89-0.4,1.35c0,0.63,0.18,1.36,0.53,2.18
				c0.26,0.6,0.97,1.81,2.13,3.63c1.62,2.55,2.53,4.58,2.72,6.08c0.18,1.49-0.12,2.9-0.92,4.2c-1.01,1.65-2.52,2.69-4.53,3.09
				c-2.01,0.41-4.02,0.01-6-1.2c-0.62-0.38-1.17-0.8-1.65-1.27c-0.48-0.46-1.03-1.13-1.65-1.99c-0.35-0.48-0.67-0.81-0.98-0.99
				c-0.25-0.15-0.58-0.22-0.98-0.19c-0.4,0.02-0.81,0.18-1.23,0.47l-0.54-0.33l4.55-7.47l0.54,0.33c-0.85,2.36-1,4.47-0.45,6.31
				c0.55,1.85,1.53,3.2,2.94,4.06c1.09,0.67,2.14,0.9,3.15,0.7c1.01-0.2,1.75-0.7,2.23-1.48c0.29-0.47,0.44-0.99,0.45-1.58
				c0.02-0.59-0.11-1.23-0.37-1.94c-0.27-0.7-0.85-1.76-1.75-3.17c-1.26-1.98-2.1-3.52-2.5-4.63c-0.41-1.1-0.59-2.16-0.55-3.19
				c0.05-1.02,0.35-2,0.91-2.93c0.96-1.58,2.35-2.57,4.19-2.97c1.83-0.41,3.63-0.08,5.39,1c0.64,0.39,1.22,0.84,1.73,1.37
				c0.39,0.4,0.81,0.95,1.28,1.67c0.47,0.72,0.83,1.16,1.09,1.31c0.25,0.16,0.5,0.2,0.74,0.13c0.24-0.07,0.6-0.36,1.09-0.87
				L108.95,240.71z"/>
			<path class="st1" d="M116.19,245.99l-3.49,8.75l0.43,0.17c1.37,0.54,2.52,0.51,3.48-0.1c0.96-0.62,1.85-1.72,2.68-3.33l0.61,0.24
				l-4.49,11.26l-0.6-0.24c0.36-1.28,0.5-2.39,0.4-3.33c-0.1-0.95-0.36-1.66-0.79-2.14c-0.43-0.48-1.16-0.93-2.19-1.34l-2.42,6.06
				c-0.47,1.18-0.71,1.93-0.72,2.23c-0.01,0.31,0.1,0.6,0.3,0.88c0.21,0.28,0.62,0.54,1.23,0.78l1.29,0.51
				c2.01,0.8,3.81,0.98,5.39,0.53c1.58-0.45,3.01-1.52,4.3-3.21l0.59,0.23l-3.69,6.45l-18.59-7.41l0.23-0.59l0.72,0.28
				c0.62,0.25,1.17,0.34,1.64,0.27c0.33-0.04,0.65-0.21,0.94-0.51c0.22-0.2,0.54-0.85,0.97-1.93l5.64-14.15
				c0.39-0.97,0.6-1.58,0.64-1.82c0.04-0.41-0.04-0.78-0.25-1.09c-0.28-0.46-0.78-0.82-1.47-1.1l-0.72-0.28l0.23-0.59l18.01,7.18
				l-2.54,6.36l-0.6-0.24c0.31-1.68,0.33-2.97,0.04-3.87c-0.29-0.9-0.87-1.71-1.76-2.43c-0.52-0.43-1.59-0.97-3.22-1.62
				L116.19,245.99z"/>
			<path class="st1" d="M134.33,250.47l8.67,16.18l1.78-9.8c0.25-1.37,0.22-2.33-0.08-2.88c-0.42-0.75-1.27-1.23-2.54-1.43
				l0.11-0.62l7.53,1.37l-0.11,0.62c-0.98-0.05-1.66-0.01-2.03,0.13c-0.37,0.14-0.68,0.41-0.95,0.82c-0.26,0.41-0.5,1.15-0.69,2.23
				l-3.45,18.97l-0.57-0.1l-11.96-21.77l-2.63,14.48c-0.24,1.31-0.1,2.25,0.41,2.82c0.52,0.57,1.16,0.92,1.93,1.07l0.54,0.1
				l-0.11,0.62l-8.08-1.47l0.11-0.62c1.26,0.22,2.18,0.12,2.76-0.29c0.58-0.42,0.98-1.23,1.2-2.44l2.93-16.08l-0.38-0.7
				c-0.37-0.69-0.72-1.17-1.06-1.43c-0.34-0.26-0.85-0.46-1.54-0.61l0.11-0.62L134.33,250.47z"/>
			<path class="st1" d="M156.5,253.29l11.83-1.74l0.1,0.63l-0.6,0.09c-0.89,0.13-1.49,0.32-1.79,0.55c-0.31,0.23-0.51,0.53-0.6,0.87
				c-0.09,0.35-0.05,1.17,0.15,2.48l1.65,11.22c0.3,2.05,0.66,3.38,1.06,4c0.41,0.62,1,1.1,1.77,1.43c0.77,0.34,1.7,0.42,2.78,0.26
				c1.24-0.18,2.26-0.62,3.04-1.3c0.79-0.69,1.33-1.55,1.62-2.59c0.29-1.04,0.25-2.79-0.1-5.22l-1.38-9.35
				c-0.15-1.02-0.36-1.74-0.64-2.15c-0.28-0.41-0.59-0.67-0.94-0.8c-0.55-0.18-1.28-0.21-2.2-0.07l-0.09-0.62l7.92-1.16l0.09,0.63
				l-0.47,0.07c-0.64,0.1-1.16,0.3-1.55,0.63c-0.39,0.32-0.65,0.76-0.76,1.3c-0.1,0.38-0.07,1.04,0.06,1.98l1.28,8.7
				c0.4,2.69,0.51,4.66,0.33,5.91c-0.18,1.25-0.88,2.47-2.11,3.68c-1.23,1.21-3.03,1.98-5.41,2.33c-1.98,0.29-3.56,0.25-4.71-0.12
				c-1.58-0.5-2.76-1.27-3.53-2.31c-0.77-1.04-1.3-2.51-1.58-4.41l-1.65-11.23c-0.19-1.32-0.39-2.13-0.58-2.43
				c-0.2-0.3-0.49-0.52-0.87-0.66c-0.39-0.14-1.07-0.13-2.04,0.02L156.5,253.29z"/>
			<path class="st1" d="M185.71,247.52l15.66,9.59l-3.41-9.36c-0.48-1.3-0.99-2.12-1.53-2.45c-0.74-0.43-1.71-0.42-2.91,0.04
				l-0.22-0.59l7.2-2.62l0.22,0.59c-0.88,0.45-1.44,0.83-1.69,1.13c-0.25,0.3-0.38,0.7-0.41,1.18c-0.02,0.49,0.15,1.25,0.53,2.27
				l6.6,18.13l-0.54,0.2l-21.33-12.76l5.04,13.84c0.45,1.25,1.05,1.99,1.78,2.22c0.73,0.23,1.47,0.21,2.21-0.06l0.52-0.19l0.22,0.59
				l-7.72,2.81l-0.22-0.6c1.19-0.45,1.94-1,2.24-1.65c0.3-0.65,0.23-1.56-0.19-2.71l-5.6-15.37l-0.67-0.41
				c-0.67-0.41-1.22-0.64-1.64-0.7c-0.42-0.05-0.97,0.03-1.64,0.25l-0.22-0.59L185.71,247.52z"/>
			<path class="st1" d="M221.83,255.39l0.31,0.55l-10.53,6l-0.31-0.55l0.67-0.38c0.58-0.33,0.99-0.71,1.23-1.12
				c0.18-0.29,0.24-0.64,0.19-1.05c-0.02-0.3-0.32-0.96-0.9-1.96l-7.54-13.24c-0.59-1.03-1.01-1.64-1.26-1.84
				c-0.26-0.2-0.6-0.29-1.05-0.3c-0.44-0.01-0.94,0.15-1.51,0.47l-0.67,0.38l-0.31-0.55l10.52-6l0.31,0.55l-0.67,0.38
				c-0.58,0.33-1,0.7-1.23,1.11c-0.18,0.29-0.25,0.64-0.2,1.06c0.03,0.3,0.33,0.95,0.9,1.96l7.54,13.24
				c0.59,1.03,1.01,1.64,1.27,1.84c0.26,0.19,0.61,0.29,1.06,0.29c0.44,0,0.94-0.15,1.51-0.48L221.83,255.39z"/>
			<path class="st1" d="M228.78,221.38l0.4,0.48c-0.56,0.65-0.85,1.47-0.87,2.48c0,0.75,0.3,2.23,0.92,4.45l5.17,18.71l-0.44,0.36
				l-17.87-9.1c-2.15-1.09-3.48-1.69-3.98-1.78c-0.5-0.09-1.13,0.11-1.88,0.61l-0.41-0.49l8.54-7.09l0.41,0.49l-0.29,0.24
				c-0.77,0.64-1.22,1.17-1.33,1.6c-0.09,0.3-0.03,0.58,0.18,0.83c0.13,0.16,0.32,0.31,0.57,0.47c0.25,0.16,0.96,0.54,2.14,1.14
				l11.16,5.72l-3.04-10.82c-0.37-1.31-0.65-2.16-0.82-2.56c-0.17-0.4-0.35-0.72-0.54-0.95c-0.22-0.26-0.48-0.43-0.79-0.52
				c-0.31-0.08-0.64-0.07-1,0.05c-0.51,0.17-1.06,0.5-1.69,1.02l-0.4-0.49L228.78,221.38z"/>
			<path class="st1" d="M233.33,216.79l7.57,5.61l0.28-0.37c0.87-1.18,1.14-2.31,0.79-3.39c-0.35-1.08-1.19-2.23-2.53-3.45
				l0.39-0.52l9.74,7.22l-0.39,0.52c-1.14-0.68-2.18-1.09-3.12-1.24c-0.94-0.15-1.69-0.08-2.27,0.22c-0.58,0.29-1.2,0.88-1.86,1.77
				l5.24,3.89c1.02,0.76,1.68,1.18,1.98,1.26c0.29,0.08,0.6,0.06,0.92-0.07c0.32-0.13,0.68-0.46,1.08-0.99l0.82-1.11
				c1.29-1.74,1.92-3.43,1.89-5.07c-0.03-1.64-0.7-3.3-2-4.98l0.38-0.51l5.29,5.22l-11.92,16.08l-0.51-0.38l0.46-0.62
				c0.4-0.54,0.63-1.05,0.68-1.52c0.05-0.33-0.04-0.68-0.25-1.04c-0.15-0.26-0.68-0.74-1.62-1.43l-12.24-9.07
				c-0.84-0.62-1.37-0.98-1.6-1.08c-0.39-0.15-0.76-0.16-1.12-0.04c-0.51,0.16-0.99,0.54-1.44,1.14l-0.46,0.62l-0.51-0.38
				l11.54-15.57l5.5,4.08l-0.39,0.52c-1.54-0.73-2.78-1.07-3.73-1.03c-0.94,0.05-1.87,0.41-2.8,1.08c-0.54,0.39-1.34,1.29-2.38,2.7
				L233.33,216.79z"/>
			<path class="st1" d="M254.12,203.91l6.03,2.4c1.17,0.46,1.93,0.68,2.28,0.66c0.36-0.02,0.7-0.18,1.02-0.47
				c0.32-0.29,0.68-0.92,1.07-1.91l0.59,0.23l-4.38,11.02l-0.59-0.23c0.4-1,0.57-1.71,0.52-2.14c-0.04-0.43-0.18-0.77-0.42-1.03
				c-0.24-0.26-0.94-0.62-2.1-1.08l-13.97-5.55c-1.16-0.46-1.93-0.68-2.28-0.66c-0.36,0.02-0.7,0.18-1.02,0.47
				c-0.32,0.29-0.68,0.92-1.07,1.91l-0.59-0.24l3.97-10c1.04-2.6,1.97-4.44,2.81-5.5c0.84-1.06,1.9-1.78,3.17-2.16
				c1.27-0.38,2.56-0.31,3.86,0.21c1.59,0.63,2.67,1.72,3.25,3.28c0.37,0.99,0.45,2.21,0.26,3.65l9.34-2.28
				c1.21-0.3,1.99-0.55,2.34-0.75c0.5-0.3,0.88-0.73,1.14-1.29l0.59,0.24l-2.7,6.78l-12.57,3.04L254.12,203.91z M243.56,199.72
				l9.43,3.75l0.36-0.9c0.58-1.47,0.89-2.63,0.91-3.46c0.02-0.84-0.24-1.6-0.77-2.3c-0.54-0.7-1.37-1.27-2.51-1.72
				c-1.64-0.65-3.01-0.75-4.09-0.29c-1.09,0.45-1.97,1.53-2.65,3.24L243.56,199.72z"/>
			<path class="st1" d="M249.01,172.1l7.65,1.08l-0.11,0.69c-1.96,0.01-3.63,0.55-5.01,1.63c-1.38,1.08-2.19,2.36-2.43,3.85
				c-0.19,1.14-0.04,2.1,0.46,2.87c0.5,0.77,1.15,1.22,1.95,1.35c0.51,0.09,0.97,0.04,1.41-0.13c0.58-0.24,1.19-0.67,1.83-1.31
				c0.46-0.47,1.32-1.58,2.58-3.33c1.76-2.45,3.3-4.05,4.63-4.79c1.32-0.73,2.74-0.97,4.24-0.72c1.91,0.32,3.43,1.34,4.56,3.05
				c1.13,1.72,1.5,3.72,1.12,6.01c-0.12,0.72-0.31,1.39-0.56,2c-0.25,0.62-0.66,1.37-1.23,2.27c-0.32,0.5-0.5,0.93-0.56,1.27
				c-0.05,0.29,0.01,0.62,0.18,0.98c0.17,0.36,0.47,0.68,0.89,0.96l-0.1,0.62l-8.63-1.44l0.1-0.63c2.51-0.09,4.52-0.73,6.03-1.93
				c1.51-1.2,2.4-2.61,2.67-4.24c0.21-1.26,0.03-2.32-0.53-3.18c-0.56-0.86-1.3-1.37-2.21-1.52c-0.54-0.09-1.09-0.03-1.64,0.17
				c-0.55,0.2-1.1,0.56-1.65,1.07c-0.55,0.51-1.32,1.44-2.3,2.8c-1.37,1.91-2.49,3.26-3.36,4.05c-0.87,0.79-1.79,1.35-2.76,1.7
				c-0.97,0.34-1.99,0.42-3.05,0.25c-1.82-0.3-3.26-1.23-4.32-2.78c-1.06-1.55-1.42-3.34-1.08-5.37c0.13-0.74,0.34-1.45,0.63-2.11
				c0.22-0.51,0.58-1.11,1.07-1.81c0.49-0.7,0.76-1.19,0.81-1.5c0.05-0.29,0-0.54-0.15-0.74c-0.15-0.2-0.56-0.43-1.22-0.69
				L249.01,172.1z"/>
			<path class="st1" d="M273.55,158.6l0.63,0.01l-0.17,12.11l-0.63-0.01l0.01-0.77c0.01-0.67-0.1-1.22-0.33-1.63
				c-0.16-0.3-0.42-0.53-0.81-0.7c-0.27-0.13-0.99-0.2-2.15-0.22l-15.24-0.22c-1.19-0.02-1.92,0.04-2.22,0.16
				c-0.3,0.12-0.56,0.37-0.79,0.75c-0.23,0.38-0.35,0.89-0.36,1.54l-0.01,0.77l-0.63-0.01l0.17-12.11l0.63,0.01l-0.01,0.77
				c-0.01,0.67,0.1,1.22,0.34,1.63c0.15,0.3,0.42,0.53,0.81,0.71c0.27,0.13,0.99,0.2,2.15,0.22l15.24,0.22
				c1.18,0.02,1.93-0.04,2.22-0.16c0.3-0.13,0.56-0.38,0.79-0.76c0.23-0.38,0.35-0.89,0.35-1.54L273.55,158.6z"/>
			<path class="st1" d="M249.79,136.99l6.22-0.81l0.08,0.61c-1.39,0.55-2.36,1.08-2.94,1.6c-0.57,0.52-0.99,1.19-1.26,2.01
				c-0.15,0.46-0.15,1.22-0.01,2.29l0.22,1.71l17.72-2.31c1.17-0.15,1.9-0.32,2.18-0.48c0.28-0.17,0.5-0.46,0.67-0.86
				c0.17-0.41,0.22-0.94,0.13-1.59l-0.1-0.76l0.63-0.08l1.57,12.03l-0.63,0.08l-0.1-0.76c-0.09-0.67-0.27-1.19-0.56-1.56
				c-0.2-0.27-0.5-0.47-0.91-0.59c-0.29-0.09-1.01-0.06-2.16,0.09l-17.72,2.31l0.21,1.66c0.2,1.55,0.68,2.63,1.42,3.24
				c1.04,0.86,2.43,1.32,4.15,1.35l0.08,0.65l-6.21,0.81L249.79,136.99z"/>
			<path class="st1" d="M242.83,112.75l0.61-0.18c0.31,0.71,0.69,1.21,1.13,1.5c0.62,0.41,2.12,0.91,4.51,1.49l9.46,2.47l5.38-1.57
				c1.15-0.33,1.84-0.6,2.09-0.8c0.25-0.2,0.42-0.51,0.53-0.93c0.11-0.42,0.08-0.92-0.09-1.51l-0.37-1.25l0.61-0.18l3.65,12.48
				l-0.61,0.18l-0.34-1.16c-0.19-0.66-0.46-1.14-0.8-1.46c-0.24-0.24-0.56-0.39-0.98-0.44c-0.3-0.04-1.01,0.1-2.12,0.42l-4.46,1.3
				l-8,8.02c-1.58,1.59-2.47,2.64-2.68,3.17c-0.21,0.52-0.21,1.14-0.02,1.86l-0.61,0.18l-3.12-10.66l0.61-0.18l0.14,0.47
				c0.19,0.65,0.41,1.07,0.67,1.27c0.26,0.2,0.5,0.27,0.7,0.21c0.39-0.12,1.26-0.84,2.59-2.18l6.18-6.17l-7.87-2.04
				c-1.93-0.51-3.16-0.69-3.7-0.54c-0.29,0.09-0.5,0.3-0.61,0.64c-0.17,0.45-0.13,1.18,0.11,2.19l-0.61,0.18L242.83,112.75z"/>
		</g>
	</g>
	<path class="st1" d="M153.37,151.18c-0.57,0-1.03,0.46-1.03,1.03v8.27c0,0.57,0.46,1.03,1.03,1.03c0.57,0,1.04-0.46,1.04-1.03
		v-8.27C154.41,151.64,153.94,151.18,153.37,151.18z M186.89,114.42c-4.34-14.41-17.7-24.9-33.52-24.9
		c-15.82,0-29.18,10.49-33.52,24.9c-23.74,1.36-42.57,21.03-42.57,45.11c0,24.08,18.83,43.75,42.57,45.11
		c4.34,14.41,17.7,24.9,33.52,24.9c15.82,0,29.18-10.49,33.52-24.9c23.74-1.36,42.57-21.03,42.57-45.11
		C229.47,135.45,210.63,115.77,186.89,114.42z M223.13,161.98c-0.03,0.48-0.06,0.96-0.11,1.43c-0.02,0.22-0.05,0.44-0.08,0.66
		c-0.05,0.41-0.1,0.82-0.16,1.23c-0.04,0.25-0.08,0.49-0.12,0.73c-0.06,0.38-0.13,0.76-0.2,1.14c-0.05,0.25-0.11,0.5-0.16,0.75
		c-0.08,0.36-0.16,0.72-0.25,1.08c-0.07,0.26-0.13,0.51-0.21,0.76c-0.09,0.35-0.19,0.7-0.29,1.04c-0.08,0.26-0.16,0.51-0.24,0.76
		c-0.11,0.34-0.22,0.67-0.34,1c-0.09,0.25-0.18,0.5-0.28,0.76c-0.12,0.32-0.25,0.65-0.39,0.97c-0.1,0.25-0.2,0.5-0.31,0.74
		c-0.14,0.32-0.28,0.63-0.43,0.95c-0.11,0.24-0.23,0.49-0.35,0.73c-0.15,0.31-0.31,0.62-0.47,0.92c-0.13,0.24-0.25,0.47-0.38,0.71
		c-0.16,0.3-0.34,0.6-0.52,0.9c-0.14,0.23-0.27,0.45-0.4,0.68c-0.18,0.3-0.38,0.59-0.57,0.88c-0.14,0.22-0.28,0.43-0.43,0.65
		c-0.2,0.29-0.41,0.59-0.62,0.87c-0.15,0.2-0.29,0.41-0.44,0.61c-0.23,0.3-0.46,0.59-0.7,0.88c-0.14,0.18-0.28,0.36-0.43,0.54
		c-0.28,0.34-0.57,0.67-0.87,1c-0.11,0.12-0.21,0.25-0.32,0.37c-0.4,0.44-0.82,0.88-1.24,1.3c-0.16,0.16-0.33,0.32-0.5,0.47
		c-0.27,0.26-0.53,0.52-0.81,0.77c-0.2,0.18-0.41,0.36-0.61,0.54c-0.25,0.22-0.5,0.44-0.76,0.65c-0.22,0.19-0.45,0.36-0.67,0.54
		c-0.25,0.2-0.49,0.4-0.75,0.59c-0.23,0.18-0.48,0.35-0.72,0.52c-0.25,0.18-0.5,0.36-0.75,0.54c-0.25,0.17-0.5,0.34-0.75,0.5
		c-0.25,0.17-0.51,0.33-0.77,0.49c-0.26,0.16-0.53,0.32-0.79,0.47c-0.26,0.15-0.51,0.3-0.78,0.45c-0.27,0.15-0.55,0.3-0.82,0.44
		c-0.26,0.14-0.53,0.27-0.8,0.41c-0.28,0.14-0.57,0.28-0.85,0.41c-0.26,0.12-0.53,0.24-0.81,0.36c-0.29,0.13-0.58,0.25-0.88,0.38
		c-0.27,0.11-0.55,0.22-0.82,0.32c-0.3,0.11-0.6,0.23-0.9,0.34c-0.27,0.1-0.55,0.19-0.83,0.28c-0.31,0.1-0.62,0.21-0.93,0.3
		c-0.28,0.08-0.56,0.16-0.84,0.24c-0.32,0.09-0.64,0.18-0.96,0.26c-0.28,0.07-0.56,0.13-0.84,0.19c-0.33,0.07-0.66,0.15-0.99,0.22
		c-0.27,0.05-0.56,0.1-0.83,0.15c-0.34,0.06-0.69,0.13-1.03,0.18c-0.26,0.04-0.53,0.07-0.79,0.1c-1.64,0.21-3.31,0.33-5.01,0.33
		c-0.81,0-1.61-0.03-2.4-0.08c-0.29,2.13-0.8,4.19-1.53,6.15l0,0c-0.13,0.35-0.27,0.7-0.42,1.05c-0.08,0.19-0.16,0.37-0.24,0.56
		c-0.09,0.2-0.17,0.4-0.27,0.59c-0.09,0.19-0.18,0.38-0.27,0.57c-0.1,0.19-0.19,0.38-0.29,0.57c-0.1,0.18-0.19,0.36-0.29,0.54
		c-0.12,0.22-0.25,0.44-0.38,0.66c-0.15,0.25-0.31,0.51-0.46,0.76c-0.13,0.2-0.26,0.41-0.39,0.61c-0.11,0.16-0.22,0.33-0.34,0.5
		c-0.12,0.18-0.25,0.35-0.38,0.53c-0.12,0.17-0.23,0.33-0.36,0.48c-0.14,0.18-0.28,0.37-0.43,0.55c-0.11,0.14-0.22,0.28-0.34,0.42
		c-0.25,0.29-0.49,0.58-0.75,0.86c-0.12,0.13-0.24,0.26-0.36,0.39c-0.16,0.17-0.33,0.35-0.5,0.52c-0.13,0.13-0.26,0.26-0.4,0.4
		c-0.17,0.16-0.34,0.33-0.52,0.49c-0.13,0.12-0.26,0.24-0.39,0.36c-0.24,0.22-0.49,0.43-0.74,0.64c-0.13,0.11-0.26,0.21-0.39,0.32
		c-0.24,0.2-0.49,0.39-0.74,0.58c-0.13,0.1-0.27,0.2-0.4,0.29c-0.21,0.15-0.42,0.3-0.63,0.45c-0.14,0.09-0.27,0.18-0.41,0.28
		c-0.24,0.16-0.48,0.31-0.73,0.46c-0.11,0.07-0.22,0.14-0.33,0.21c-0.35,0.21-0.7,0.41-1.06,0.61c-0.11,0.06-0.23,0.12-0.34,0.18
		c-0.26,0.14-0.53,0.28-0.79,0.41c-0.14,0.07-0.27,0.13-0.41,0.2c-0.26,0.13-0.52,0.24-0.78,0.35c-0.13,0.06-0.26,0.12-0.39,0.17
		c-0.38,0.16-0.77,0.31-1.16,0.46c-0.03,0.01-0.05,0.02-0.08,0.03c-0.38,0.14-0.76,0.26-1.14,0.38c-0.13,0.04-0.26,0.08-0.39,0.12
		c-0.29,0.09-0.58,0.17-0.87,0.25c-0.14,0.04-0.28,0.08-0.42,0.11c-0.32,0.08-0.65,0.16-0.98,0.22c-0.1,0.03-0.2,0.05-0.3,0.07
		c-0.42,0.08-0.85,0.16-1.28,0.23c-0.1,0.02-0.21,0.03-0.31,0.04c-0.33,0.05-0.67,0.09-1,0.13c-0.15,0.02-0.29,0.03-0.43,0.04
		c-0.32,0.03-0.63,0.05-0.95,0.07c-0.13,0.01-0.27,0.02-0.4,0.02c-0.45,0.02-0.9,0.04-1.35,0.04h0c-0.45,0-0.9-0.01-1.34-0.04
		c-0.14-0.01-0.27-0.01-0.41-0.02c-0.32-0.02-0.63-0.05-0.94-0.07c-0.15-0.01-0.3-0.03-0.45-0.04c-0.33-0.04-0.66-0.08-0.98-0.13
		c-0.11-0.02-0.22-0.03-0.33-0.05c-0.43-0.07-0.85-0.14-1.27-0.22c-0.11-0.03-0.22-0.05-0.33-0.08c-0.31-0.07-0.63-0.14-0.94-0.22
		c-0.15-0.04-0.3-0.08-0.44-0.12c-0.28-0.08-0.56-0.15-0.84-0.24c-0.14-0.04-0.28-0.08-0.42-0.13c-0.36-0.11-0.71-0.23-1.06-0.36
		c-0.08-0.03-0.16-0.05-0.24-0.08c-0.36-0.13-0.71-0.27-1.06-0.42c-0.14-0.06-0.29-0.12-0.43-0.19c-0.25-0.11-0.49-0.22-0.73-0.33
		c-0.15-0.07-0.3-0.15-0.46-0.22c-0.25-0.12-0.49-0.24-0.73-0.37c-0.13-0.07-0.27-0.14-0.4-0.21c-0.35-0.19-0.69-0.38-1.02-0.59
		c-0.14-0.08-0.27-0.17-0.4-0.25c-0.22-0.14-0.44-0.27-0.65-0.42c-0.16-0.1-0.31-0.21-0.46-0.31c-0.19-0.13-0.38-0.27-0.57-0.41
		c-0.15-0.11-0.3-0.22-0.46-0.33c-0.21-0.16-0.41-0.32-0.61-0.48c-0.21-0.17-0.42-0.34-0.63-0.52c-0.2-0.17-0.39-0.34-0.59-0.51
		c-0.15-0.14-0.3-0.28-0.45-0.42c-0.15-0.14-0.3-0.28-0.45-0.42c-0.15-0.15-0.3-0.3-0.45-0.45c-0.14-0.15-0.28-0.29-0.41-0.44
		c-0.15-0.15-0.29-0.3-0.43-0.46c-0.22-0.24-0.44-0.49-0.64-0.75c-0.17-0.2-0.33-0.4-0.49-0.6c-0.12-0.15-0.23-0.29-0.34-0.44
		c-0.14-0.18-0.27-0.36-0.41-0.55c-0.1-0.15-0.21-0.29-0.31-0.44c-0.13-0.19-0.27-0.38-0.39-0.57c-0.1-0.14-0.19-0.29-0.28-0.43
		c-0.23-0.37-0.46-0.74-0.68-1.12c-0.08-0.14-0.16-0.28-0.24-0.42c-0.12-0.21-0.23-0.42-0.34-0.64c-0.08-0.15-0.15-0.3-0.23-0.46
		c-0.11-0.21-0.21-0.43-0.31-0.65c-0.07-0.15-0.14-0.31-0.21-0.46c-0.1-0.23-0.2-0.45-0.3-0.67c-0.03-0.07-0.05-0.14-0.08-0.2
		c-0.89-2.2-1.52-4.53-1.85-6.96c-0.8,0.05-1.59,0.08-2.4,0.08c-1.72,0-3.41-0.13-5.07-0.34c-0.24-0.03-0.48-0.06-0.72-0.09
		c-0.36-0.05-0.72-0.12-1.08-0.18c-0.26-0.05-0.52-0.09-0.78-0.14c-0.35-0.07-0.69-0.15-1.03-0.23c-0.26-0.06-0.53-0.12-0.79-0.18
		c-0.34-0.08-0.67-0.18-1.01-0.27c-0.26-0.07-0.53-0.15-0.79-0.22c-0.33-0.1-0.65-0.21-0.98-0.31c-0.26-0.08-0.52-0.17-0.78-0.26
		c-0.32-0.12-0.64-0.24-0.95-0.36c-0.26-0.1-0.52-0.2-0.77-0.3c-0.31-0.13-0.61-0.26-0.92-0.4c-0.25-0.11-0.51-0.22-0.76-0.34
		c-0.3-0.14-0.6-0.28-0.9-0.43c-0.25-0.12-0.5-0.25-0.74-0.38c-0.29-0.15-0.58-0.31-0.87-0.47c-0.24-0.14-0.48-0.28-0.72-0.41
		c-0.29-0.17-0.57-0.34-0.85-0.51c-0.24-0.14-0.47-0.29-0.7-0.45c-0.27-0.18-0.55-0.36-0.82-0.55c-0.23-0.16-0.45-0.32-0.67-0.48
		c-0.27-0.19-0.54-0.38-0.8-0.58c-0.22-0.17-0.43-0.34-0.65-0.51c-0.26-0.21-0.52-0.41-0.76-0.62c-0.21-0.17-0.42-0.36-0.63-0.54
		c-0.24-0.22-0.5-0.42-0.74-0.65c-0.2-0.18-0.39-0.38-0.59-0.56c-0.24-0.23-0.48-0.45-0.71-0.68c-0.16-0.16-0.32-0.33-0.47-0.5
		c-0.46-0.48-0.91-0.97-1.35-1.48c-0.19-0.22-0.39-0.43-0.57-0.66c-0.19-0.24-0.38-0.48-0.57-0.72c-0.18-0.24-0.37-0.47-0.55-0.71
		c-0.18-0.24-0.36-0.49-0.53-0.74c-0.18-0.25-0.36-0.49-0.52-0.74c-0.17-0.25-0.34-0.5-0.5-0.76c-0.17-0.26-0.33-0.51-0.49-0.77
		c-0.16-0.26-0.31-0.52-0.46-0.78c-0.15-0.27-0.31-0.53-0.46-0.8c-0.15-0.26-0.29-0.53-0.43-0.8c-0.14-0.27-0.28-0.55-0.42-0.82
		c-0.13-0.27-0.26-0.54-0.39-0.82c-0.13-0.28-0.26-0.57-0.39-0.85c-0.12-0.27-0.24-0.55-0.35-0.83c-0.12-0.29-0.24-0.58-0.35-0.88
		c-0.11-0.28-0.21-0.56-0.31-0.85c-0.11-0.3-0.21-0.6-0.31-0.9c-0.09-0.29-0.19-0.57-0.27-0.86c-0.09-0.31-0.18-0.62-0.26-0.93
		c-0.08-0.29-0.16-0.58-0.23-0.87c-0.08-0.32-0.15-0.63-0.22-0.96c-0.07-0.29-0.13-0.58-0.19-0.88c-0.06-0.32-0.12-0.66-0.18-0.99
		c-0.05-0.29-0.1-0.58-0.15-0.87c-0.05-0.35-0.09-0.69-0.13-1.04c-0.03-0.29-0.07-0.57-0.1-0.86c-0.04-0.37-0.06-0.75-0.09-1.12
		c-0.02-0.26-0.04-0.53-0.06-0.79c-0.02-0.5-0.03-1.01-0.04-1.51c0-0.14-0.01-0.28-0.01-0.42c0-0.14,0.01-0.28,0.01-0.42
		c0-0.51,0.01-1.01,0.04-1.52c0.01-0.27,0.04-0.53,0.06-0.79c0.03-0.38,0.05-0.75,0.09-1.12c0.03-0.29,0.07-0.57,0.1-0.85
		c0.04-0.35,0.08-0.7,0.13-1.04c0.04-0.29,0.1-0.58,0.15-0.87c0.06-0.33,0.11-0.66,0.18-0.99c0.06-0.29,0.12-0.58,0.19-0.88
		c0.07-0.32,0.14-0.64,0.22-0.96c0.07-0.29,0.15-0.58,0.23-0.87c0.08-0.31,0.17-0.62,0.26-0.93c0.09-0.29,0.18-0.58,0.27-0.86
		c0.1-0.3,0.2-0.6,0.31-0.9c0.1-0.28,0.2-0.57,0.31-0.85c0.11-0.29,0.23-0.58,0.35-0.87c0.11-0.28,0.23-0.56,0.35-0.83
		c0.13-0.29,0.25-0.57,0.39-0.85c0.13-0.27,0.26-0.55,0.39-0.82c0.14-0.27,0.28-0.55,0.42-0.82c0.14-0.27,0.28-0.54,0.43-0.8
		c0.15-0.27,0.31-0.53,0.46-0.8c0.15-0.26,0.3-0.52,0.46-0.78c0.16-0.26,0.33-0.51,0.49-0.77c0.16-0.25,0.33-0.51,0.5-0.76
		c0.17-0.25,0.35-0.5,0.52-0.74c0.18-0.25,0.35-0.5,0.53-0.74c0.18-0.24,0.37-0.47,0.55-0.71c0.19-0.24,0.38-0.48,0.57-0.72
		c0.19-0.22,0.38-0.44,0.57-0.66c0.44-0.5,0.89-1,1.35-1.48c0.16-0.16,0.31-0.33,0.47-0.5c0.23-0.23,0.47-0.46,0.71-0.69
		c0.2-0.19,0.39-0.38,0.59-0.56c0.24-0.22,0.49-0.43,0.74-0.65c0.21-0.18,0.42-0.37,0.63-0.54c0.25-0.21,0.51-0.41,0.76-0.61
		c0.22-0.17,0.43-0.34,0.65-0.51c0.26-0.2,0.53-0.39,0.8-0.58c0.22-0.16,0.44-0.32,0.67-0.48c0.27-0.19,0.54-0.37,0.82-0.55
		c0.23-0.15,0.46-0.3,0.7-0.45c0.28-0.17,0.56-0.34,0.85-0.51c0.24-0.14,0.48-0.28,0.72-0.41c0.29-0.16,0.58-0.32,0.87-0.47
		c0.25-0.13,0.49-0.26,0.74-0.38c0.3-0.15,0.6-0.29,0.9-0.43c0.25-0.12,0.5-0.23,0.76-0.34c0.31-0.14,0.61-0.27,0.92-0.4
		c0.26-0.1,0.51-0.2,0.77-0.3c0.31-0.12,0.63-0.24,0.95-0.35c0.26-0.09,0.52-0.18,0.78-0.27c0.33-0.11,0.65-0.21,0.98-0.31
		c0.26-0.08,0.53-0.15,0.79-0.23c0.33-0.09,0.67-0.19,1.01-0.27c0.26-0.07,0.53-0.12,0.79-0.18c0.35-0.08,0.69-0.16,1.03-0.23
		c0.26-0.05,0.52-0.09,0.78-0.14c0.36-0.07,0.72-0.13,1.08-0.19c0.24-0.04,0.48-0.06,0.72-0.09c1.66-0.22,3.35-0.34,5.07-0.34
		c0.81,0,1.61,0.03,2.41,0.08c0.32-2.36,0.91-4.62,1.77-6.76c0.05-0.14,0.1-0.28,0.16-0.41c0.09-0.22,0.19-0.44,0.29-0.65
		c0.07-0.16,0.14-0.33,0.22-0.49c0.1-0.21,0.2-0.42,0.31-0.63c0.08-0.16,0.16-0.32,0.25-0.48c0.11-0.21,0.21-0.41,0.32-0.61
		c0.09-0.16,0.19-0.32,0.28-0.48c0.2-0.35,0.41-0.69,0.62-1.02c0.1-0.16,0.2-0.32,0.31-0.48c0.12-0.18,0.25-0.37,0.38-0.56
		c0.11-0.15,0.22-0.31,0.33-0.46c0.13-0.18,0.26-0.36,0.4-0.53c0.12-0.16,0.25-0.31,0.37-0.47c0.13-0.16,0.26-0.33,0.39-0.49
		c0.24-0.28,0.48-0.56,0.72-0.84c0.14-0.15,0.27-0.29,0.41-0.44c0.15-0.16,0.29-0.31,0.44-0.46c0.14-0.15,0.29-0.29,0.43-0.43
		c0.16-0.15,0.31-0.3,0.47-0.45c0.14-0.13,0.28-0.27,0.43-0.4c0.21-0.19,0.42-0.37,0.64-0.55c0.18-0.15,0.36-0.3,0.55-0.45
		c0.22-0.17,0.43-0.35,0.65-0.52c0.15-0.11,0.29-0.21,0.44-0.32c0.19-0.14,0.39-0.28,0.59-0.42c0.15-0.1,0.3-0.2,0.45-0.3
		c0.22-0.15,0.45-0.29,0.67-0.43c0.13-0.08,0.25-0.16,0.38-0.24c0.34-0.21,0.69-0.41,1.04-0.6c0.13-0.07,0.25-0.13,0.38-0.2
		c0.25-0.13,0.5-0.26,0.74-0.38c0.15-0.08,0.3-0.14,0.45-0.21c0.25-0.12,0.5-0.23,0.75-0.34c0.14-0.06,0.28-0.12,0.42-0.18
		c0.36-0.15,0.72-0.29,1.08-0.43c0.06-0.03,0.13-0.05,0.2-0.07c0.35-0.13,0.72-0.25,1.08-0.37c0.14-0.04,0.28-0.08,0.41-0.13
		c0.28-0.08,0.56-0.17,0.84-0.24c0.15-0.04,0.29-0.08,0.44-0.11c0.31-0.08,0.63-0.15,0.94-0.22c0.11-0.02,0.21-0.05,0.32-0.07
		c0.42-0.09,0.85-0.16,1.27-0.23c0.11-0.02,0.22-0.03,0.33-0.05c0.33-0.04,0.66-0.09,0.99-0.12c0.15-0.02,0.29-0.03,0.44-0.05
		c0.31-0.03,0.62-0.05,0.94-0.07c0.14-0.01,0.27-0.02,0.41-0.02c0.44-0.02,0.89-0.03,1.34-0.03h0c0.45,0,0.9,0.01,1.35,0.03
		c0.13,0.01,0.27,0.02,0.4,0.02c0.32,0.02,0.64,0.04,0.95,0.07c0.14,0.02,0.29,0.03,0.43,0.04c0.34,0.04,0.68,0.08,1.01,0.13
		c0.1,0.02,0.2,0.03,0.3,0.04c0.43,0.07,0.86,0.14,1.28,0.23c0.1,0.02,0.2,0.04,0.3,0.06c0.33,0.07,0.65,0.15,0.98,0.23
		c0.14,0.04,0.28,0.07,0.42,0.11c0.3,0.08,0.59,0.16,0.88,0.25c0.13,0.04,0.26,0.08,0.38,0.12c0.39,0.12,0.78,0.25,1.16,0.39
		c0.02,0.01,0.04,0.01,0.06,0.02c0.4,0.15,0.79,0.3,1.18,0.46c0.13,0.05,0.25,0.11,0.38,0.16c0.27,0.12,0.53,0.24,0.8,0.36
		c0.13,0.06,0.27,0.13,0.41,0.2c0.27,0.13,0.54,0.27,0.81,0.41c0.11,0.05,0.22,0.11,0.32,0.17c0.36,0.2,0.71,0.4,1.06,0.61
		c0.1,0.06,0.21,0.13,0.31,0.2c0.25,0.16,0.5,0.31,0.75,0.48c0.13,0.09,0.26,0.18,0.4,0.27c0.22,0.15,0.44,0.3,0.65,0.46
		c0.13,0.1,0.25,0.19,0.38,0.28c0.26,0.2,0.52,0.4,0.78,0.61c0.1,0.08,0.2,0.17,0.31,0.25c0.27,0.22,0.53,0.45,0.8,0.69
		c0.13,0.11,0.24,0.23,0.37,0.34c0.18,0.17,0.36,0.35,0.54,0.52c0.13,0.12,0.25,0.25,0.38,0.38c0.18,0.18,0.35,0.36,0.52,0.55
		c0.11,0.12,0.23,0.24,0.34,0.36c0.26,0.29,0.51,0.58,0.76,0.88c0.11,0.13,0.21,0.26,0.31,0.39c0.16,0.19,0.31,0.39,0.46,0.58
		c0.12,0.15,0.23,0.3,0.34,0.46c0.14,0.18,0.26,0.37,0.4,0.56c0.11,0.16,0.22,0.31,0.32,0.47c0.14,0.21,0.28,0.43,0.42,0.65
		c0.14,0.22,0.27,0.44,0.4,0.66c0.14,0.24,0.29,0.48,0.42,0.72c0.1,0.17,0.18,0.35,0.27,0.52c0.1,0.2,0.21,0.39,0.3,0.59
		c0.09,0.18,0.18,0.36,0.27,0.55c0.1,0.2,0.19,0.41,0.28,0.61c0.08,0.18,0.16,0.35,0.23,0.53c0.15,0.35,0.29,0.7,0.42,1.06
		c0,0,0,0,0,0c0.73,1.96,1.24,4.01,1.53,6.15c0.79-0.05,1.59-0.08,2.4-0.08c1.7,0,3.37,0.12,5.01,0.33c0.26,0.03,0.53,0.06,0.79,0.1
		c0.34,0.05,0.69,0.12,1.03,0.18c0.27,0.05,0.56,0.09,0.83,0.15c0.33,0.07,0.66,0.15,0.99,0.22c0.28,0.06,0.56,0.13,0.84,0.19
		c0.32,0.08,0.64,0.17,0.96,0.26c0.28,0.08,0.56,0.15,0.84,0.24c0.31,0.09,0.62,0.2,0.93,0.3c0.27,0.09,0.55,0.18,0.83,0.28
		c0.3,0.11,0.61,0.22,0.9,0.34c0.27,0.11,0.55,0.21,0.82,0.32c0.3,0.12,0.59,0.25,0.88,0.38c0.27,0.12,0.54,0.24,0.81,0.36
		c0.29,0.13,0.57,0.27,0.85,0.41c0.27,0.13,0.53,0.27,0.8,0.41c0.27,0.14,0.55,0.29,0.82,0.44c0.26,0.15,0.52,0.3,0.78,0.45
		c0.26,0.16,0.53,0.31,0.79,0.47c0.26,0.16,0.51,0.33,0.77,0.49c0.25,0.17,0.51,0.33,0.75,0.5c0.25,0.17,0.5,0.35,0.75,0.54
		c0.24,0.17,0.48,0.35,0.72,0.52c0.25,0.19,0.5,0.39,0.75,0.59c0.22,0.18,0.45,0.35,0.67,0.54c0.26,0.21,0.51,0.44,0.76,0.66
		c0.2,0.18,0.41,0.35,0.61,0.54c0.27,0.25,0.54,0.51,0.81,0.77c0.17,0.16,0.34,0.31,0.5,0.48c0.42,0.42,0.84,0.86,1.24,1.3
		c0.11,0.12,0.21,0.25,0.32,0.37c0.29,0.33,0.59,0.66,0.87,1c0.15,0.18,0.29,0.36,0.43,0.54c0.23,0.29,0.47,0.58,0.7,0.88
		c0.15,0.2,0.29,0.4,0.44,0.61c0.21,0.29,0.42,0.58,0.62,0.87c0.15,0.21,0.29,0.43,0.43,0.65c0.19,0.29,0.39,0.58,0.57,0.88
		c0.14,0.23,0.27,0.45,0.4,0.68c0.17,0.3,0.35,0.6,0.52,0.9c0.13,0.23,0.25,0.47,0.38,0.71c0.16,0.3,0.32,0.61,0.47,0.92
		c0.12,0.24,0.23,0.48,0.35,0.73c0.15,0.31,0.29,0.63,0.43,0.94c0.11,0.25,0.21,0.5,0.31,0.74c0.14,0.32,0.26,0.65,0.39,0.97
		c0.09,0.25,0.19,0.5,0.28,0.75c0.12,0.33,0.23,0.67,0.34,1c0.09,0.25,0.16,0.51,0.24,0.76c0.1,0.34,0.2,0.69,0.29,1.04
		c0.07,0.25,0.14,0.5,0.21,0.76c0.09,0.36,0.17,0.72,0.25,1.08c0.06,0.25,0.11,0.5,0.16,0.75c0.08,0.38,0.14,0.76,0.2,1.14
		c0.04,0.24,0.09,0.48,0.12,0.73c0.06,0.41,0.11,0.82,0.16,1.23c0.03,0.22,0.06,0.44,0.08,0.66c0.05,0.47,0.08,0.95,0.11,1.43
		c0.01,0.16,0.03,0.33,0.04,0.49c0.03,0.65,0.05,1.3,0.05,1.96c0,0.66-0.02,1.31-0.05,1.96
		C223.16,161.65,223.15,161.82,223.13,161.98z M153.37,140.68c1.26,0,2.27-1.02,2.27-2.27c0-1.25-1.02-2.27-2.27-2.27
		c-1.26,0-2.27,1.02-2.27,2.27C151.1,139.66,152.12,140.68,153.37,140.68z M162.64,132.77h-5.52v12.57h-1.88
		c-0.53-0.4-1.19-0.65-1.9-0.65c-0.72,0-1.38,0.25-1.91,0.65h-1.8v-12.57h-5.51v38.36h-2.26v5.62h23.04v-5.62h-2.26V132.77z
		 M157.12,171.13h-7.49v-3.59h7.49V171.13z M157.12,165.08h-7.49v-17.43h2.11c0.09-0.8,0.77-1.43,1.6-1.43
		c0.83,0,1.5,0.63,1.59,1.43h2.19V165.08z M162.58,124.72H158v-3.64h-1.27v-2.31h1.21v-2.1h-1.21v-0.33c0-1.69-1.24-3.08-2.87-3.32
		v-5.83h-0.99v5.83c-1.62,0.24-2.87,1.63-2.87,3.32v0.33h-1.21v2.1h1.21v2.31h-1.27v3.64h-4.58v3.42h-2.26v2.2h22.93v-2.2h-2.26
		V124.72z M152.33,124.72h-1.3v-3.64h1.3V124.72z M155.72,124.72h-1.3v-3.64h1.3V124.72z M184.27,123.87c-0.01,0-0.02,0-0.04,0
		h-5.08c-0.35-13.95-11.75-25.15-25.78-25.15c-14.03,0-25.43,11.2-25.78,25.15h-5.08c-0.01,0-0.02,0-0.04,0
		c-19.7,0-35.66,15.97-35.66,35.66s15.97,35.66,35.66,35.66h5.12c0.35,13.95,11.75,25.14,25.78,25.14
		c14.03,0,25.43-11.2,25.78-25.14h5.12c19.69,0,35.66-15.97,35.66-35.66S203.96,123.87,184.27,123.87z M122.73,171.02
		c-2.07-1.8-4.63-3.06-7.45-3.54h14.35C126.79,167.49,124.28,168.89,122.73,171.02z M124.46,172.77c1.09-1.73,3-2.88,5.19-2.88
		c3.39,0,6.14,2.75,6.14,6.14l0,0l0,0v6.96h-7.75c0-0.11,0.01-0.22,0.01-0.33C128.05,178.9,126.7,175.45,124.46,172.77z
		 M135.79,185.4v14.74h-3.3v-9.5l0,0l0,0c0-2-0.73-3.83-1.93-5.23H135.79z M153.37,218.03c-10.16,0-18.81-6.46-22.09-15.49h44.18
		C172.19,211.58,163.54,218.03,153.37,218.03z M147.23,200.13v-12.14c0.52-3.09,3.15-5.45,6.3-5.45c2.9,0,5.35,2.01,6.11,4.75v12.83
		H147.23z M174.25,190.63c0,0,0,0.01,0,0.01v9.49h-3.4V185.4h5.33C174.97,186.81,174.25,188.63,174.25,190.63z M178.68,182.66
		c0,0.11,0.01,0.22,0.01,0.33h-7.84v-6.96l0,0l0,0c0-3.39,2.75-6.14,6.14-6.14c2.22,0,4.16,1.18,5.24,2.95
		C180.01,175.51,178.68,178.93,178.68,182.66z M183.94,171.08c-1.55-2.17-4.08-3.59-6.94-3.59h14.44
		C188.6,167.98,186.03,169.25,183.94,171.08z M211.47,147.2c-8.27,0-15.22,5.63-17.24,13.26h-30.78v2.41h30.32
		c-0.09,0.71-0.14,1.43-0.14,2.17c0,0.01,0,0.02,0,0.04h-30.19v2.41h13.51c-4.71,0.01-8.53,3.83-8.53,8.55l0,0l0,0v24.1h-3.33
		v-20.82h2.05v-1.62h-7.52v5.73c-1.05-1.19-2.41-2.07-3.95-2.51v-1.83h0.87v-1.42h-6.4v1.42h0.87v1.92c-1.49,0.49-2.81,1.41-3.8,2.6
		v-5.89h-7.64v1.59h2.08v20.82h-3.46v-24.1l0,0l0,0c0-4.72-3.82-8.54-8.53-8.55h13.61v-2.41H113.1c0-0.01,0-0.03,0-0.04
		c0-0.74-0.05-1.46-0.13-2.17h30.32v-2.41H112.5c-2.02-7.63-8.97-13.26-17.24-13.26c-1.22,0-2.42,0.12-3.58,0.36
		c4.79-12.32,16.76-21.06,30.78-21.07h7.41v-1.98h0c0-12.98,10.52-23.5,23.5-23.5c12.98,0,23.5,10.52,23.5,23.5v1.98h7.41
		c14.02,0.01,25.98,8.75,30.78,21.07C213.9,147.33,212.7,147.2,211.47,147.2z M151.29,205.78h-4.23l-1,3.06h3.4l-0.14,1.21h-3.7
		l-0.46,1.41h5.69L151.29,205.78z M149.66,207.79h-1.92l0.26-1.02l1.85-0.03L149.66,207.79z M163.51,209.96l0.71,1.51l2.11-0.1
		l-0.82-1.31l0.97-0.05l-0.82-1.41h-1.17l-1.43-2.82h-1.46l-1.49,2.67l0.53,1.51H163.51z M162.3,207.28l0.58,1.26h-1.22
		L162.3,207.28z M144.78,205.78h-1.65l-2.58,5.69h2.29L144.78,205.78z M153.09,211.46h5.78l-0.37-1.46h-2.28l1.8-1.6l-0.6-2.62
		h-4.28l-0.03,2.19h1.65l-0.14-0.87h1.55l0.1,0.97l-3.11,1.9L153.09,211.46z"/>
</g>
</svg>